<svg width="24.000000" height="24.000000" viewBox="0 0 24 24" fill="none" xmlns="http://www.w3.org/2000/svg" xmlns:xlink="http://www.w3.org/1999/xlink">
	<desc>
			Created with Pixso.
	</desc>
	<defs/>
	<path id="图标颜色" d="M2 12C2 17.5228 6.47705 22 12 22C17.5229 22 22 17.5228 22 12C22 6.47717 17.5229 2 12 2C6.47705 2 2 6.47717 2 12ZM20.8 12.0001C20.8 16.8602 16.8601 20.8002 12 20.8002C7.13989 20.8002 3.19995 16.8602 3.19995 12.0001C3.19995 7.14001 7.13989 3.20007 12 3.20007C16.8601 3.20007 20.8 7.14001 20.8 12.0001ZM15.9602 15.1115L12.8491 12.0001L15.9602 8.88879L15.1118 8.04028L12.0005 11.1516L8.88916 8.04028L8.04077 8.88879L11.1519 12.0001L8.04077 15.1115L8.88916 15.96L12.0005 12.8486L15.1118 15.96L15.9602 15.1115Z" clip-rule="evenodd" fill-rule="evenodd" fill="#FA5151" fill-opacity="1.000000"/>
</svg>
