<svg width="15.515381" height="12.476074" viewBox="0 0 15.5154 12.4761" fill="none" xmlns="http://www.w3.org/2000/svg"
     xmlns:xlink="http://www.w3.org/1999/xlink">
    <desc>
        Created with Pixso.
    </desc>
    <defs/>
    <path id="path"
          d="M0.796631 1.55151L14.7188 1.55151C15.1594 1.55151 15.5154 1.2041 15.5154 0.775879C15.5154 0.347656 15.1597 0 14.7188 0L0.796631 0C0.356689 0 0 0.347412 0 0.775879C0 1.2041 0.356689 1.55151 0.796631 1.55151ZM14.7185 5.43042L0.796631 5.43042C0.355713 5.43042 0 5.77783 0 6.20605C0 6.63428 0.355713 6.98193 0.796631 6.98193L14.7188 6.98193C15.1594 6.98193 15.5154 6.63428 15.5154 6.20605C15.5151 5.77783 15.1572 5.43042 14.7185 5.43042ZM14.7185 10.9246L0.796631 10.9246C0.356934 10.9246 0 11.2722 0 11.7004C0 12.1287 0.356689 12.4761 0.796631 12.4761L14.7188 12.4761C15.1594 12.4761 15.5154 12.1287 15.5154 11.7004C15.5151 11.2722 15.1594 10.9246 14.7185 10.9246Z"
          fill-rule="nonzero" fill="white"/>
</svg>
