<svg width="20.000000" height="20.000000" viewBox="0 0 20 20" fill="none" xmlns="http://www.w3.org/2000/svg" xmlns:xlink="http://www.w3.org/1999/xlink">
	<desc>
			Created with Pixso.
	</desc>
	<path id="path" d="M15 2.5L18.3334 2.5C18.7936 2.5 19.1864 2.66272 19.5118 2.98816C19.8373 3.31359 20 3.70643 20 4.16666L20 18.3333C20 18.7936 19.8373 19.1864 19.5118 19.5118C19.1864 19.8373 18.7936 20 18.3334 20L1.66663 20C1.20642 20 0.813599 19.8373 0.488159 19.5118C0.16272 19.1864 0 18.7936 0 18.3333L0 4.16666C0 3.70643 0.16272 3.31359 0.488159 2.98816C0.813599 2.66272 1.20642 2.5 1.66663 2.5L5 2.5L5 0.833336C5 0.277779 5.27783 0 5.83337 0C6.38892 0 6.66663 0.277779 6.66663 0.833336L6.66663 2.5L13.3334 2.5L13.3334 0.833336C13.3334 0.277779 13.6111 0 14.1666 0C14.7222 0 15 0.277779 15 0.833336L15 2.5ZM15 4.16666L15 5.83334C15 6.38889 14.7222 6.66666 14.1666 6.66666C13.6111 6.66666 13.3334 6.38889 13.3334 5.83334L13.3334 4.16666L6.66663 4.16666L6.66663 5.83334C6.66663 6.38889 6.38892 6.66666 5.83337 6.66666C5.27783 6.66666 5 6.38889 5 5.83334L5 4.16666L1.66663 4.16666L1.66663 18.3333L18.3334 18.3333L18.3334 4.16666L15 4.16666ZM1.66663 10L18.3334 10L18.3334 11.6667L1.66663 11.6667L1.66663 10Z" fill-rule="nonzero" fill="#8f9bb7"/>
	<defs/>
</svg>
