<svg width="22.070068" height="20.057510" viewBox="0 0 22.0701 20.0575" fill="none" xmlns="http://www.w3.org/2000/svg" xmlns:xlink="http://www.w3.org/1999/xlink">
	<desc>
			Created with Pixso.
	</desc>
	<path id="path" d="M10.2158 19.7327C9.89478 19.7336 9.62134 19.6174 9.39502 19.3841L0.340088 10.0984C0.112549 9.86629 -0.000976562 9.58569 0 9.25657L0 1.21909C0.000976562 0.426331 0.387939 0.0295105 1.16089 0.0286179L8.99854 0.0286179C9.31958 0.0277176 9.59326 0.143936 9.81958 0.377281L18.8745 9.66296C19.4204 10.2242 19.4204 10.7854 18.8745 11.3466L11.0366 19.3841C10.8103 19.6174 10.5369 19.7336 10.2158 19.7327ZM1.16089 0.980995C1.0061 0.980995 0.928711 1.06036 0.928711 1.21909L0.928711 9.25657C0.928467 9.3224 0.951172 9.3785 0.996826 9.42487L10.0518 18.7106C10.1611 18.8227 10.2705 18.8227 10.3799 18.7106L18.2178 10.6731C18.3269 10.5609 18.3269 10.4487 18.2178 10.3365L9.16284 1.05079C9.11743 1.00405 9.06274 0.980789 8.99854 0.980995L1.16089 0.980995ZM6.03662 8.60002C4.75635 8.60002 3.71484 7.53187 3.71484 6.21908C3.71484 4.90628 4.75635 3.83813 6.03662 3.83813C7.31689 3.83813 8.3584 4.90628 8.3584 6.21908C8.3584 7.53187 7.31689 8.60002 6.03662 8.60002ZM6.03662 4.79051C5.10791 4.79051 4.64355 5.2667 4.64355 6.21908C4.64355 7.17146 5.10791 7.64764 6.03662 7.64764C6.96533 7.64764 7.42969 7.17146 7.42969 6.21908C7.42871 5.26778 6.96436 4.7916 6.03662 4.79051ZM13.3303 19.8891L21.6606 11.3466C22.2065 10.7854 22.2065 10.2242 21.6606 9.66296L12.4016 0.168053C12.1826 -0.0561066 11.9639 -0.056015 11.7451 0.168312C11.5264 0.392639 11.5264 0.617058 11.7449 0.84156L21.0039 10.3365C21.113 10.4487 21.113 10.5609 21.0039 10.6731L12.6736 19.2156C12.4546 19.4401 12.4546 19.6646 12.6736 19.8891C12.8926 20.1136 13.1113 20.1136 13.3303 19.8891Z" fill-rule="nonzero" fill="#8f9bb7"/>
	<defs/>
</svg>
