<svg width="20.000000" height="20.000000" viewBox="0 0 20 20" fill="none" xmlns="http://www.w3.org/2000/svg" xmlns:xlink="http://www.w3.org/1999/xlink">
	<desc>
			Created with Pixso.
	</desc>
	<path id="path" d="M7.53442 9.44412L1.88599 9.44412C0.846191 9.44412 0 8.5966 0 7.5553L0 1.89861C0 0.857315 0.846191 0.00978851 1.88599 0.00978851L7.53442 0.00978851C8.57422 0.00978851 9.42041 0.857315 9.42041 1.89861L9.42041 7.5553C9.42236 8.5966 8.57617 9.44412 7.53442 9.44412ZM1.88599 1.18223C1.49316 1.18223 1.17261 1.50323 1.17261 1.89665L1.17261 7.55334C1.17261 7.94676 1.49316 8.26776 1.88599 8.26776L7.53442 8.26776C7.92725 8.26776 8.2478 7.94676 8.2478 7.55334L8.2478 1.89665C8.2478 1.50323 7.92725 1.18223 7.53442 1.18223L1.88599 1.18223ZM18.1003 9.43433L12.4519 9.43433C11.4121 9.43433 10.5659 8.58681 10.5659 7.54551L10.5659 1.88882C10.5659 0.847527 11.4121 0 12.4519 0L18.1003 0C19.1401 0 19.9863 0.847527 19.9863 1.88882L19.9863 7.54551C19.9863 8.58681 19.1401 9.43433 18.1003 9.43433ZM12.4519 1.1744C12.0591 1.1744 11.7385 1.4954 11.7385 1.88882L11.7385 7.54551C11.7385 7.93893 12.0591 8.25993 12.4519 8.25993L18.1003 8.25993C18.4932 8.25993 18.8137 7.93893 18.8137 7.54551L18.8137 1.88882C18.8137 1.4954 18.4932 1.1744 18.1003 1.1744L12.4519 1.1744ZM7.5481 20L1.89966 20C0.859863 20 0.0136719 19.1525 0.0136719 18.1112L0.0136719 12.4545C0.0136719 11.4132 0.859863 10.5657 1.89966 10.5657L7.5481 10.5657C8.58789 10.5657 9.43408 11.4132 9.43408 12.4545L9.43408 18.1112C9.43408 19.1525 8.58789 20 7.5481 20ZM1.89966 11.7381C1.50684 11.7381 1.18628 12.0591 1.18628 12.4525L1.18628 18.1092C1.18628 18.5026 1.50684 18.8236 1.89966 18.8236L7.5481 18.8236C7.94092 18.8236 8.26147 18.5026 8.26147 18.1092L8.26147 12.4525C8.26147 12.0591 7.94092 11.7381 7.5481 11.7381L1.89966 11.7381ZM18.114 19.9922L12.4656 19.9922C11.4258 19.9922 10.5796 19.1447 10.5796 18.1033L10.5796 12.4447C10.5796 11.4034 11.4258 10.5559 12.4656 10.5559L18.114 10.5559C19.1538 10.5559 20 11.4034 20 12.4447L20 18.1014C20 19.1447 19.1538 19.9922 18.114 19.9922ZM12.4656 11.7303C12.0728 11.7303 11.7522 12.0513 11.7522 12.4447L11.7522 18.1014C11.7522 18.4948 12.0728 18.8158 12.4656 18.8158L18.114 18.8158C18.5068 18.8158 18.8274 18.4948 18.8274 18.1014L18.8274 12.4447C18.8274 12.0513 18.5068 11.7303 18.114 11.7303L12.4656 11.7303Z" fill-rule="nonzero" fill="#8f9bb7"/>
	<defs/>
</svg>
