<svg width="24.000000" height="24.000000" viewBox="0 0 24 24" fill="none" xmlns="http://www.w3.org/2000/svg" xmlns:xlink="http://www.w3.org/1999/xlink">
	<desc>
			Created with Pixso.
	</desc>
	<g clip-path="url(#clip4_271)">
		<path id="Vector" d="M15.4474 3.7803C15.4074 4.0303 15.3874 4.2803 15.3874 4.5303C15.3874 6.7803 17.2074 8.5993 19.4474 8.5993C19.6974 8.5993 19.9374 8.5703 20.1874 8.5303L20.1874 16.5993C20.1874 19.9903 18.1874 22.0003 14.7874 22.0003L7.39844 22.0003C3.99744 22.0003 1.99744 19.9903 1.99744 16.5993L1.99744 9.2003C1.99744 5.8003 3.99744 3.7803 7.39844 3.7803L15.4474 3.7803ZM19.5875 2C20.9175 2 21.9975 3.08 21.9975 4.41C21.9975 5.74 20.9175 6.82 19.5875 6.82C18.2575 6.82 17.1775 5.74 17.1775 4.41C17.1775 3.08 18.2575 2 19.5875 2Z" fill-rule="evenodd" fill="#2D55FB"/>
		<g clip-path="url(#clip40_4)">
			<path id="path" d="M11.9583 16.625L11.9583 17.7708L10.5833 16.8542L9.20833 17.7708L9.20833 16.625L8.97917 16.625C8.53619 16.625 8.15808 16.4684 7.84485 16.1552C7.53162 15.8419 7.375 15.4638 7.375 15.0208L7.375 9.29167C7.375 8.91197 7.50925 8.58788 7.77773 8.31939C8.04622 8.05091 8.3703 7.91667 8.75 7.91667L15.1667 7.91667C15.4722 7.91667 15.625 8.06944 15.625 8.375L15.625 16.1667C15.625 16.4722 15.4722 16.625 15.1667 16.625L11.9583 16.625ZM11.9583 15.7083L14.7083 15.7083L14.7083 14.3333L8.97917 14.3333C8.52083 14.3333 8.29167 14.5625 8.29167 15.0208C8.29167 15.4792 8.52083 15.7083 8.97917 15.7083L9.20833 15.7083L9.20833 14.7917L11.9583 14.7917L11.9583 15.7083ZM14.7083 13.4167L14.7083 8.83333L8.75 8.83333L8.75 13.4327C8.826 13.4219 8.9024 13.4166 8.97917 13.4167L14.7083 13.4167ZM9.20833 9.29167L10.125 9.29167L10.125 10.2083L9.20833 10.2083L9.20833 9.29167ZM9.20833 10.6667L10.125 10.6667L10.125 11.5833L9.20833 11.5833L9.20833 10.6667ZM9.20833 12.0417L10.125 12.0417L10.125 12.9583L9.20833 12.9583L9.20833 12.0417Z" fill-rule="nonzero" fill="#000000"/>
		</g>
	</g>
	<defs>
		<clipPath id="clip40_4">
			<rect id="git-repository-line" width="11.000000" height="11.000000" transform="translate(6.000000 7.000000)" fill="white"/>
		</clipPath>
		<clipPath id="clip4_271">
			<rect id="Activity" width="24.000000" height="24.000000" fill="white"/>
		</clipPath>
	</defs>
</svg>
