<svg width="17.000015" height="20.000000" viewBox="0 0 17 20" fill="none" xmlns="http://www.w3.org/2000/svg" xmlns:xlink="http://www.w3.org/1999/xlink">
	<desc>
			Created with Pixso.
	</desc>
	<path id="Vector" d="M7.84081 0.103699C8.23332 -0.034565 8.66611 -0.034565 9.06871 0.103699L15.7014 2.32867C16.4462 2.57382 16.9495 3.26122 16.9495 4.02608L16.9999 10.6637C17.0099 12.674 16.2751 14.6254 14.9264 16.1561C14.3125 16.8621 13.5174 17.4603 12.5109 17.9996L8.93787 19.9117C8.82715 19.9706 8.70638 20 8.5856 20C8.46481 20 8.33397 19.9706 8.22327 19.9117L4.62006 18.0486C3.6035 17.5191 2.80838 16.9307 2.18436 16.2345C0.815536 14.7244 0.0506134 12.773 0.0405579 10.7628L0.000137329 4.12316C-0.00976562 3.3583 0.493469 2.67286 1.2282 2.41692L7.84081 0.103699ZM7.13626 7.35913C6.84438 7.07476 6.37134 7.07476 6.06938 7.35913C5.77751 7.65429 5.77751 8.11517 6.06938 8.39954L7.42815 9.72237L6.06938 11.0472C5.77751 11.3315 5.77751 11.8022 6.06938 12.0866C6.22037 12.2337 6.41159 12.3013 6.60283 12.3013C6.80412 12.3013 6.99535 12.2337 7.13626 12.0866L8.49501 10.7628L9.85376 12.0866C10.0047 12.2337 10.196 12.3013 10.3872 12.3013C10.5784 12.3013 10.7797 12.2337 10.9206 12.0866C11.2125 11.8022 11.2125 11.3315 10.9206 11.0472L9.56189 9.72237L10.9206 8.39954C11.2125 8.11517 11.2125 7.65429 10.9206 7.35913C10.6288 7.07476 10.1456 7.07476 9.85376 7.35913L8.49501 8.68392L7.13626 7.35913Z" fill-rule="evenodd" fill="#32CAFD"/>
	<defs/>
</svg>
