<svg width="20.000000" height="20.000000" viewBox="0 0 20 20" fill="none" xmlns="http://www.w3.org/2000/svg" xmlns:xlink="http://www.w3.org/1999/xlink">
	<desc>
			Created with Pixso.
	</desc>
	<path id="Vector" d="M14.669 0C18.07 0 19.99 1.929 20 5.33L20 14.67C20 18.07 18.07 20 14.669 20L5.32999 20C1.92899 20 0 18.07 0 14.67L0 5.33C0 1.929 1.92899 0 5.32999 0L14.669 0ZM10.5 4.13C10.219 3.96 9.879 3.96 9.60999 4.13C9.33899 4.299 9.19 4.61 9.21899 4.92L9.21899 15.11C9.26999 15.54 9.629 15.86 10.049 15.86C10.48 15.86 10.839 15.54 10.879 15.11L10.879 4.92C10.919 4.61 10.77 4.299 10.5 4.13ZM5.82999 7.41C5.56 7.24 5.21899 7.24 4.95001 7.41C4.67899 7.58 4.53 7.889 4.56 8.2L4.56 15.11C4.599 15.54 4.95901 15.86 5.38901 15.86C5.82001 15.86 6.17899 15.54 6.21899 15.11L6.21899 8.2C6.25 7.889 6.099 7.58 5.82999 7.41ZM15.089 11.04C14.82 10.87 14.48 10.87 14.2 11.04C13.929 11.21 13.78 11.509 13.82 11.83L13.82 15.11C13.86 15.54 14.219 15.86 14.65 15.86C15.07 15.86 15.429 15.54 15.48 15.11L15.48 11.83C15.509 11.509 15.36 11.21 15.089 11.04Z" fill-rule="evenodd" fill="#DF2DB1"/>
	<defs/>
</svg>
