<svg width="20.000092" height="20.000298" viewBox="0 0 20.0001 20.0003" fill="none" xmlns="http://www.w3.org/2000/svg" xmlns:xlink="http://www.w3.org/1999/xlink">
	<desc>
			Created with Pixso.
	</desc>
	<path id="矢量 1" d="M13.45 1.7803C13.41 2.0303 13.39 2.2803 13.39 2.5303C13.39 4.7803 15.21 6.5993 17.45 6.5993C17.7 6.5993 17.94 6.5703 18.19 6.5303L18.19 14.5993C18.19 17.9903 16.19 20.0003 12.79 20.0003L5.401 20.0003C2 20.0003 0 17.9903 0 14.5993L0 7.2003C0 3.8003 2 1.7803 5.401 1.7803L13.45 1.7803ZM17.5901 0C18.9201 0 20.0001 1.08 20.0001 2.41C20.0001 3.74 18.9201 4.82 17.5901 4.82C16.2601 4.82 15.1801 3.74 15.1801 2.41C15.1801 1.08 16.2601 0 17.5901 0Z" fill-rule="evenodd" fill="#2D55FB"/>
	<path id="矢量 1" d="M9.96089 14.625L9.96089 15.7708L8.58589 14.8542L7.21089 15.7708L7.21089 14.625L6.98174 14.625C6.53876 14.625 6.16064 14.4684 5.84741 14.1552C5.53418 13.8419 5.37756 13.4638 5.37756 13.0208L5.37756 7.29167C5.37756 6.91197 5.51181 6.58788 5.78029 6.31939C6.04878 6.05091 6.37286 5.91667 6.75256 5.91667L13.1692 5.91667C13.4748 5.91667 13.6276 6.06944 13.6276 6.375L13.6276 14.1667C13.6276 14.4722 13.4748 14.625 13.1692 14.625L9.96089 14.625ZM9.96089 13.7083L12.7109 13.7083L12.7109 12.3333L6.98174 12.3333C6.52339 12.3333 6.29424 12.5625 6.29424 13.0208C6.29424 13.4792 6.52339 13.7083 6.98174 13.7083L7.21089 13.7083L7.21089 12.7917L9.96089 12.7917L9.96089 13.7083ZM12.7109 11.4167L12.7109 6.83333L6.75256 6.83333L6.75256 11.4327C6.82857 11.4219 6.90497 11.4166 6.98174 11.4167L12.7109 11.4167ZM7.21089 7.29167L8.12756 7.29167L8.12756 8.20833L7.21089 8.20833L7.21089 7.29167ZM7.21089 8.66667L8.12756 8.66667L8.12756 9.58333L7.21089 9.58333L7.21089 8.66667ZM7.21089 10.0417L8.12756 10.0417L8.12756 10.9583L7.21089 10.9583L7.21089 10.0417Z" fill-rule="evenodd" fill="#000000"/>
	<defs/>
</svg>
